<mxfile host="app.diagrams.net" modified="2023-12-15T08:17:56.123Z" agent="Mozilla/5.0 (Windows NT 10.0; Win64; x64) AppleWebKit/537.36 (KHTML, like Gecko) Chrome/120.0.0.0 Safari/537.36" etag="gzVPCf2n-4AIB3qaz0Ir" version="22.1.9" type="device">
  <diagram name="Page-1" id="LxIlVnyEaQQZYjOA5c86">
    <mxGraphModel dx="804" dy="1338" grid="1" gridSize="10" guides="1" tooltips="1" connect="1" arrows="1" fold="1" page="1" pageScale="1" pageWidth="850" pageHeight="1100" math="0" shadow="0">
      <root>
        <mxCell id="0" />
        <mxCell id="1" parent="0" />
        <mxCell id="Gm4cjwFkqAhzZVHvWEqz-7" style="edgeStyle=orthogonalEdgeStyle;rounded=0;orthogonalLoop=1;jettySize=auto;html=1;exitX=0.5;exitY=1;exitDx=0;exitDy=0;entryX=0.5;entryY=0;entryDx=0;entryDy=0;" parent="1" source="Gm4cjwFkqAhzZVHvWEqz-1" target="Gm4cjwFkqAhzZVHvWEqz-6" edge="1">
          <mxGeometry relative="1" as="geometry" />
        </mxCell>
        <mxCell id="Gm4cjwFkqAhzZVHvWEqz-1" value="sampleCollect" style="shape=process;whiteSpace=wrap;html=1;backgroundOutline=1;" parent="1" vertex="1">
          <mxGeometry x="210" y="190" width="120" height="30" as="geometry" />
        </mxCell>
        <mxCell id="Gm4cjwFkqAhzZVHvWEqz-5" value="" style="edgeStyle=orthogonalEdgeStyle;rounded=0;orthogonalLoop=1;jettySize=auto;html=1;" parent="1" source="Gm4cjwFkqAhzZVHvWEqz-2" target="Gm4cjwFkqAhzZVHvWEqz-4" edge="1">
          <mxGeometry relative="1" as="geometry" />
        </mxCell>
        <mxCell id="Gm4cjwFkqAhzZVHvWEqz-2" value="Add 1 to sample" style="whiteSpace=wrap;html=1;" parent="1" vertex="1">
          <mxGeometry x="220" y="320" width="100" height="30" as="geometry" />
        </mxCell>
        <mxCell id="Gm4cjwFkqAhzZVHvWEqz-4" value="Return" style="ellipse;whiteSpace=wrap;html=1;" parent="1" vertex="1">
          <mxGeometry x="240" y="370" width="60" height="60" as="geometry" />
        </mxCell>
        <mxCell id="Gm4cjwFkqAhzZVHvWEqz-8" style="edgeStyle=orthogonalEdgeStyle;rounded=0;orthogonalLoop=1;jettySize=auto;html=1;exitX=0.5;exitY=1;exitDx=0;exitDy=0;entryX=0.5;entryY=0;entryDx=0;entryDy=0;" parent="1" source="Gm4cjwFkqAhzZVHvWEqz-6" target="Gm4cjwFkqAhzZVHvWEqz-2" edge="1">
          <mxGeometry relative="1" as="geometry" />
        </mxCell>
        <mxCell id="Gm4cjwFkqAhzZVHvWEqz-6" value="Simulate sample collection by making sound&amp;nbsp;" style="shape=parallelogram;perimeter=parallelogramPerimeter;whiteSpace=wrap;html=1;fixedSize=1;" parent="1" vertex="1">
          <mxGeometry x="200" y="240" width="140" height="60" as="geometry" />
        </mxCell>
      </root>
    </mxGraphModel>
  </diagram>
</mxfile>
